<svg width="70" height="70" viewBox="0 0 70 70" fill="none" xmlns="http://www.w3.org/2000/svg">
<path d="M59.5946 0H10.4054C7.64572 0 4.99906 0.949076 3.04767 2.63844C1.09628 4.32781 0 6.61908 0 9.00821V60.1584C0 62.5476 1.09628 64.8388 3.04767 66.5282C4.99906 68.2176 7.64572 69.1666 10.4054 69.1666H59.5946C62.3543 69.1666 65.0009 68.2176 66.9523 66.5282C68.9037 64.8388 70 62.5476 70 60.1584V9.00821C70 6.61908 68.9037 4.32781 66.9523 2.63844C65.0009 0.949076 62.3543 0 59.5946 0Z" fill="#E82E2E"/>
<path d="M30 31.25V44.25C30 44.681 30.1712 45.0943 30.476 45.399C30.7807 45.7038 31.194 45.875 31.625 45.875C32.056 45.875 32.4693 45.7038 32.774 45.399C33.0788 45.0943 33.25 44.681 33.25 44.25V31.25C33.25 30.819 33.0788 30.4057 32.774 30.101C32.4693 29.7962 32.056 29.625 31.625 29.625C31.194 29.625 30.7807 29.7962 30.476 30.101C30.1712 30.4057 30 30.819 30 31.25Z" fill="white"/>
<path d="M38.125 29.625C38.556 29.625 38.9693 29.7962 39.274 30.101C39.5788 30.4057 39.75 30.819 39.75 31.25V44.25C39.75 44.681 39.5788 45.0943 39.274 45.399C38.9693 45.7038 38.556 45.875 38.125 45.875C37.694 45.875 37.2807 45.7038 36.976 45.399C36.6712 45.0943 36.5 44.681 36.5 44.25V31.25C36.5 30.819 36.6712 30.4057 36.976 30.101C37.2807 29.7962 37.694 29.625 38.125 29.625Z" fill="white"/>
<path d="M41.375 21.5H51.125C51.556 21.5 51.9693 21.6712 52.274 21.976C52.5788 22.2807 52.75 22.694 52.75 23.125C52.75 23.556 52.5788 23.9693 52.274 24.274C51.9693 24.5788 51.556 24.75 51.125 24.75H49.3277L46.8837 46.772C46.663 48.7595 45.717 50.5958 44.2269 51.9294C42.7368 53.263 40.8072 54.0002 38.8075 54H30.9425C28.9428 54.0002 27.0132 53.263 25.5231 51.9294C24.033 50.5958 23.087 48.7595 22.8662 46.772L20.419 24.75H18.625C18.194 24.75 17.7807 24.5788 17.476 24.274C17.1712 23.9693 17 23.556 17 23.125C17 22.694 17.1712 22.2807 17.476 21.976C17.7807 21.6712 18.194 21.5 18.625 21.5H28.375C28.375 19.7761 29.0598 18.1228 30.2788 16.9038C31.4978 15.6848 33.1511 15 34.875 15C36.5989 15 38.2522 15.6848 39.4712 16.9038C40.6902 18.1228 41.375 19.7761 41.375 21.5V21.5ZM34.875 18.25C34.013 18.25 33.1864 18.5924 32.5769 19.2019C31.9674 19.8114 31.625 20.638 31.625 21.5H38.125C38.125 20.638 37.7826 19.8114 37.1731 19.2019C36.5636 18.5924 35.737 18.25 34.875 18.25V18.25ZM23.6918 24.75L26.0967 46.4145C26.2295 47.6068 26.7972 48.7082 27.6913 49.5081C28.5853 50.308 29.7429 50.7502 30.9425 50.75H38.8075C40.0066 50.7494 41.1634 50.3068 42.0567 49.507C42.9501 48.7072 43.5173 47.6062 43.65 46.4145L46.0615 24.75H23.695H23.6918Z" fill="white"/>
</svg>
