<svg width="149" height="96" viewBox="0 0 149 96" fill="none" xmlns="http://www.w3.org/2000/svg">
<g filter="url(#filter0_d)">
<path d="M8.88906 7.7C9.9224 7.5 11.0724 7.36666 12.3391 7.3C13.6057 7.23333 14.6724 7.2 15.5391 7.2C16.5057 7.2 17.6057 7.23333 18.8391 7.3C20.0724 7.36666 21.2224 7.5 22.2891 7.7V76C21.2224 76.2 20.0724 76.3333 18.8391 76.4C17.6057 76.4667 16.5057 76.5 15.5391 76.5C14.6724 76.5 13.6057 76.4667 12.3391 76.4C11.0724 76.3333 9.9224 76.2 8.88906 76V7.7ZM49.3055 26.2C49.3055 24.8667 49.3055 23.65 49.3055 22.55C49.3388 21.45 49.3555 20.2 49.3555 18.8H49.3055C48.5721 18.8 47.5555 18.8167 46.2555 18.85C44.9555 18.8833 43.9555 18.9 43.2555 18.9H32.1555C31.9555 17.9 31.8221 16.9167 31.7555 15.95C31.6888 14.9833 31.6555 14.1167 31.6555 13.35C31.6555 12.55 31.6888 11.6667 31.7555 10.7C31.8221 9.7 31.9555 8.7 32.1555 7.7H79.9555C80.4221 9.23333 80.6555 10.9667 80.6555 12.9C80.6555 15.1 80.0721 16.65 78.9055 17.55C77.7388 18.45 75.9221 18.9 73.4555 18.9H68.8055C68.1055 18.9 67.0888 18.8833 65.7555 18.85C64.4555 18.8167 63.4555 18.8 62.7555 18.8H62.6555C62.6555 20.2 62.6721 21.45 62.7055 22.55C62.7388 23.65 62.7555 24.8667 62.7555 26.2V76C61.6221 76.2 60.4555 76.3333 59.2555 76.4C58.0555 76.4667 56.9721 76.5 56.0055 76.5C55.0388 76.5 53.9555 76.4667 52.7555 76.4C51.5555 76.3333 50.4055 76.2 49.3055 76V26.2ZM130.353 64.6C130.353 68.9333 129.653 71.95 128.253 73.65C126.853 75.35 124.52 76.2 121.253 76.2H96.9531C94.6198 76.2 92.7365 75.5 91.3031 74.1C89.9031 72.6667 89.2031 70.6833 89.2031 68.15V7.8L89.8531 7.15H94.8531C97.4865 7.15 99.4365 7.83333 100.703 9.2C102.003 10.5333 102.653 12.6833 102.653 15.65V64.95C105.82 64.7167 108.853 64.6 111.753 64.6H130.353Z" fill="url(#paint0_radial)"/>
</g>
<defs>
<filter id="filter0_d" x="0.88916" y="0.149902" width="147.464" height="95.3501" filterUnits="userSpaceOnUse" color-interpolation-filters="sRGB">
<feFlood flood-opacity="0" result="BackgroundImageFix"/>
<feColorMatrix in="SourceAlpha" type="matrix" values="0 0 0 0 0 0 0 0 0 0 0 0 0 0 0 0 0 0 127 0" result="hardAlpha"/>
<feOffset dx="5" dy="6"/>
<feGaussianBlur stdDeviation="6.5"/>
<feComposite in2="hardAlpha" operator="out"/>
<feColorMatrix type="matrix" values="0 0 0 0 0.54902 0 0 0 0 0.54902 0 0 0 0 0.639216 0 0 0 0.5 0"/>
<feBlend mode="normal" in2="BackgroundImageFix" result="effect1_dropShadow"/>
<feBlend mode="normal" in="SourceGraphic" in2="effect1_dropShadow" result="shape"/>
</filter>
<radialGradient id="paint0_radial" cx="0" cy="0" r="1" gradientUnits="userSpaceOnUse" gradientTransform="translate(104 15.0453) rotate(116.276) scale(84.7076 199.225)">
<stop stop-color="#AC46A1"/>
<stop offset="1" stop-color="#5943DB"/>
</radialGradient>
</defs>
</svg>
