<svg width="187" height="66" viewBox="0 0 187 66" fill="none" xmlns="http://www.w3.org/2000/svg">
<g filter="url(#filter0_i_1285_14)">
<path d="M72 0.732654C72.9783 0.543297 74.0671 0.417054 75.2664 0.353941C76.4656 0.290819 77.4756 0.259262 78.2961 0.259262C79.2113 0.259262 80.2528 0.290819 81.4205 0.353941C82.5882 0.417054 83.677 0.543297 84.6869 0.732654V65.3979C83.677 65.5873 82.5882 65.7135 81.4205 65.7767C80.2528 65.8398 79.2113 65.8713 78.2961 65.8713C77.4756 65.8713 76.4656 65.8398 75.2664 65.7767C74.0671 65.7135 72.9783 65.5873 72 65.3979V0.732654ZM110.266 18.2481C110.266 16.9858 110.266 15.8338 110.266 14.7924C110.297 13.7509 110.313 12.5674 110.313 11.2419H110.266C109.571 11.2419 108.609 11.2578 107.378 11.2893C106.147 11.3208 105.2 11.3366 104.538 11.3366H94.0283C93.8389 10.3898 93.7126 9.45887 93.6496 8.54361C93.5864 7.62836 93.5549 6.80788 93.5549 6.08198C93.5549 5.32455 93.5864 4.48826 93.6496 3.573C93.7126 2.62622 93.8389 1.67944 94.0283 0.732654H139.284C139.726 2.18438 139.947 3.82551 139.947 5.65593C139.947 7.73885 139.395 9.20636 138.29 10.0585C137.186 10.9106 135.466 11.3366 133.13 11.3366H128.728C128.065 11.3366 127.103 11.3208 125.84 11.2893C124.609 11.2578 123.663 11.2419 123 11.2419H122.905C122.905 12.5674 122.921 13.7509 122.952 14.7924C122.984 15.8338 123 16.9858 123 18.2481V65.3979C121.927 65.5873 120.822 65.7135 119.686 65.7767C118.55 65.8398 117.524 65.8713 116.609 65.8713C115.694 65.8713 114.668 65.8398 113.532 65.7767C112.396 65.7135 111.307 65.5873 110.266 65.3979V18.2481ZM187 54.6046C187 58.7073 186.337 61.5635 185.012 63.173C183.686 64.7825 181.477 65.5873 178.384 65.5873H155.378C153.168 65.5873 151.385 64.9245 150.028 63.5991C148.703 62.242 148.04 60.3642 148.04 57.9657V0.827333L148.655 0.211924H153.389C155.883 0.211924 157.729 0.858889 158.928 2.15283C160.159 3.41517 160.774 5.45076 160.774 8.25958V54.936C163.773 54.7151 166.644 54.6046 169.39 54.6046H187Z" fill="url(#paint0_radial_1285_14)"/>
</g>
<g filter="url(#filter1_i_1285_14)">
<path d="M46.9057 0C39.5407 0 34.7211 5.11808 30.0831 9.77701C25.7184 5.39066 20.7172 0 13.9886 0C5.9872 0 0.168224 6.30485 0.168224 13.5238C0.168224 15.4157 0.484364 17.1784 1.06971 18.7669C1.41236 20.7265 2.39958 23.6596 4.7757 28.3595C6.96215 32.6823 10.1092 38.075 14.1293 44.3881C20.9416 55.0813 28.0313 64.8891 28.1026 64.9872C28.5636 65.625 29.2978 66 30.081 66H30.1075C30.8989 65.992 31.6373 65.5984 32.0901 64.9446C32.1594 64.8422 39.2511 54.5853 46.0614 43.6789C50.0793 37.2429 53.2183 31.8337 55.3966 27.597C57.822 22.8828 58.8089 20.089 59.1229 18.2812C59.6922 16.7869 60 15.178 60 13.5218C59.9981 5.66533 54.6338 0 46.9057 0ZM5.89746 13.5238C5.86483 9.12521 9.35259 5.48293 13.8988 5.48293C19.1712 5.48293 22.8996 10.2362 26.4465 13.5238L30.0831 17.2707C31.3435 18.5374 32.6571 19.8861 34.0501 21.1671C34.5804 21.655 35.1209 22.1305 35.6736 22.5876C37.8397 24.379 40.2015 25.8835 42.8469 26.6009C43.9096 26.8878 45.0191 27.0498 46.1797 27.0498C47.7093 27.0498 49.1575 26.8181 50.5036 26.3959C48.3702 30.4399 45.3985 35.5088 41.664 41.4775C37.1584 48.6781 32.5673 55.5404 30.0443 59.2624C27.4642 55.604 22.7894 48.8605 18.2432 41.7235C13.9926 35.0517 11.1862 30.1304 9.33421 26.5066C9.33421 26.5066 5.92805 17.9225 5.89746 13.5238ZM46.2694 21.5648C43.8647 21.5648 41.7802 20.5768 39.8895 19.1892C38.7738 18.3714 37.7255 17.4141 36.7179 16.4405C35.6859 15.4444 34.6966 14.4298 33.7218 13.5238C37.1768 9.9615 41.3601 5.48293 46.5427 5.48293C50.9972 5.48293 54.2708 8.86491 54.2708 13.5238C54.2708 17.818 50.8156 21.5648 46.2694 21.5648Z" fill="url(#paint1_linear_1285_14)"/>
</g>
<defs>
<filter id="filter0_i_1285_14" x="72" y="0.211924" width="120" height="71.6594" filterUnits="userSpaceOnUse" color-interpolation-filters="sRGB">
<feFlood flood-opacity="0" result="BackgroundImageFix"/>
<feBlend mode="normal" in="SourceGraphic" in2="BackgroundImageFix" result="shape"/>
<feColorMatrix in="SourceAlpha" type="matrix" values="0 0 0 0 0 0 0 0 0 0 0 0 0 0 0 0 0 0 127 0" result="hardAlpha"/>
<feOffset dx="5" dy="6"/>
<feGaussianBlur stdDeviation="6.5"/>
<feComposite in2="hardAlpha" operator="arithmetic" k2="-1" k3="1"/>
<feColorMatrix type="matrix" values="0 0 0 0 0.54902 0 0 0 0 0.54902 0 0 0 0 0.639216 0 0 0 0.5 0"/>
<feBlend mode="normal" in2="shape" result="effect1_innerShadow_1285_14"/>
</filter>
<filter id="filter1_i_1285_14" x="0.168224" y="0" width="64.8318" height="76" filterUnits="userSpaceOnUse" color-interpolation-filters="sRGB">
<feFlood flood-opacity="0" result="BackgroundImageFix"/>
<feBlend mode="normal" in="SourceGraphic" in2="BackgroundImageFix" result="shape"/>
<feColorMatrix in="SourceAlpha" type="matrix" values="0 0 0 0 0 0 0 0 0 0 0 0 0 0 0 0 0 0 127 0" result="hardAlpha"/>
<feOffset dx="5" dy="10"/>
<feGaussianBlur stdDeviation="7"/>
<feComposite in2="hardAlpha" operator="arithmetic" k2="-1" k3="1"/>
<feColorMatrix type="matrix" values="0 0 0 0 0.54902 0 0 0 0 0.54902 0 0 0 0 0.639216 0 0 0 0.5 0"/>
<feBlend mode="normal" in2="shape" result="effect1_innerShadow_1285_14"/>
</filter>
<radialGradient id="paint0_radial_1285_14" cx="0" cy="0" r="1" gradientUnits="userSpaceOnUse" gradientTransform="translate(162.049 7.68707) rotate(116.276) scale(80.1997 188.623)">
<stop stop-color="#AC46A1"/>
<stop offset="1" stop-color="#5943DB"/>
</radialGradient>
<linearGradient id="paint1_linear_1285_14" x1="37.6023" y1="-12.4143" x2="-0.0321677" y2="65.9038" gradientUnits="userSpaceOnUse">
<stop stop-color="#AC46A1"/>
<stop offset="1" stop-color="#5943DB"/>
</linearGradient>
</defs>
</svg>
